# xmcd CD database file
#
# Track frame offsets:
#	150
#	13554
#	39873
#	46067
#	66773
#	75716
#	89869
#	97059
#	105881
#	117297
#	132478
#	143210
#	152386
#
# Disc length: 2214 seconds
#
# Revision: 0
# Processed by: cddbd v1.5.2PL0 Copyright (c) Steve Scherf et al.
# Submitted via: CDex 1.70beta2
#
DISCID=a008a40d
DTITLE=Pliny Keep - My Country
DYEAR=2001
DGENRE=Country
TTITLE0=My Country
TTITLE1=The Hippie
TTITLE2=Love Is A Word
TTITLE3=Come Back To Me
TTITLE4=Mahoney
TTITLE5=Codependency
TTITLE6=Country Is Dumb
TTITLE7=Cowpie
TTITLE8=Heart Of Hearts
TTITLE9=Spring
TTITLE10=Fall
TTITLE11=Right Here Right Now
TTITLE12=Dream Easy
EXTD=YEAR: 2001
EXTT0=
EXTT1=
EXTT2=
EXTT3=
EXTT4=
EXTT5=
EXTT6=
EXTT7=
EXTT8=
EXTT9=
EXTT10=
EXTT11=
EXTT12=
PLAYORDER=
